<svg width="546" height="163" viewBox="0 0 546 163" fill="none" xmlns="http://www.w3.org/2000/svg">
<path d="M0 76H546V118C546 142.853 525.853 163 501 163H45C20.1472 163 0 142.853 0 118V76Z" fill="#2C0187"/>
<path d="M213.357 122.51L217.42 110.781H219.471L214.197 125H212.537L207.273 110.781H209.314L213.357 122.51ZM220.174 119.619C220.174 118.584 220.376 117.653 220.779 116.826C221.189 115.999 221.756 115.361 222.479 114.912C223.208 114.463 224.038 114.238 224.969 114.238C226.408 114.238 227.57 114.736 228.455 115.732C229.347 116.729 229.793 118.053 229.793 119.707V119.834C229.793 120.863 229.594 121.787 229.197 122.607C228.807 123.421 228.243 124.056 227.508 124.512C226.779 124.967 225.939 125.195 224.988 125.195C223.556 125.195 222.394 124.697 221.502 123.701C220.617 122.705 220.174 121.387 220.174 119.746V119.619ZM221.99 119.834C221.99 121.006 222.26 121.947 222.801 122.656C223.348 123.366 224.077 123.721 224.988 123.721C225.906 123.721 226.635 123.363 227.176 122.646C227.716 121.924 227.986 120.915 227.986 119.619C227.986 118.46 227.71 117.523 227.156 116.807C226.609 116.084 225.88 115.723 224.969 115.723C224.077 115.723 223.357 116.077 222.811 116.787C222.264 117.497 221.99 118.512 221.99 119.834ZM234.021 125H232.215V110H234.021V125ZM240.408 122.549L243.025 114.434H244.871L241.082 125H239.705L235.877 114.434H237.723L240.408 122.549ZM250.857 125.195C249.425 125.195 248.26 124.727 247.361 123.789C246.463 122.845 246.014 121.585 246.014 120.01V119.678C246.014 118.63 246.212 117.695 246.609 116.875C247.013 116.048 247.573 115.404 248.289 114.941C249.012 114.473 249.793 114.238 250.633 114.238C252.007 114.238 253.074 114.691 253.836 115.596C254.598 116.501 254.979 117.796 254.979 119.482V120.234H247.82C247.846 121.276 248.149 122.119 248.729 122.764C249.314 123.402 250.057 123.721 250.955 123.721C251.593 123.721 252.133 123.59 252.576 123.33C253.019 123.07 253.406 122.725 253.738 122.295L254.842 123.154C253.956 124.515 252.628 125.195 250.857 125.195ZM250.633 115.723C249.904 115.723 249.292 115.99 248.797 116.523C248.302 117.051 247.996 117.793 247.879 118.75H253.172V118.613C253.12 117.695 252.872 116.986 252.43 116.484C251.987 115.977 251.388 115.723 250.633 115.723ZM262.186 116.055C261.912 116.009 261.616 115.986 261.297 115.986C260.112 115.986 259.308 116.491 258.885 117.5V125H257.078V114.434H258.836L258.865 115.654C259.458 114.71 260.298 114.238 261.385 114.238C261.736 114.238 262.003 114.284 262.186 114.375V116.055ZM275.34 125C275.236 124.792 275.151 124.421 275.086 123.887C274.246 124.759 273.243 125.195 272.078 125.195C271.036 125.195 270.18 124.902 269.51 124.316C268.846 123.724 268.514 122.975 268.514 122.07C268.514 120.97 268.93 120.117 269.764 119.512C270.604 118.9 271.782 118.594 273.299 118.594H275.057V117.764C275.057 117.132 274.868 116.631 274.49 116.26C274.113 115.882 273.556 115.693 272.82 115.693C272.176 115.693 271.635 115.856 271.199 116.182C270.763 116.507 270.545 116.901 270.545 117.363H268.729C268.729 116.836 268.914 116.328 269.285 115.84C269.663 115.345 270.171 114.954 270.809 114.668C271.453 114.382 272.16 114.238 272.928 114.238C274.145 114.238 275.099 114.544 275.789 115.156C276.479 115.762 276.837 116.598 276.863 117.666V122.529C276.863 123.499 276.987 124.271 277.234 124.844V125H275.34ZM272.342 123.623C272.908 123.623 273.445 123.477 273.953 123.184C274.461 122.891 274.829 122.51 275.057 122.041V119.873H273.641C271.427 119.873 270.32 120.521 270.32 121.816C270.32 122.383 270.509 122.826 270.887 123.145C271.264 123.464 271.749 123.623 272.342 123.623ZM281.658 125H279.852V110H281.658V125ZM291.326 115.713C292.127 114.73 293.169 114.238 294.451 114.238C296.684 114.238 297.811 115.498 297.83 118.018V125H296.023V118.008C296.017 117.246 295.841 116.683 295.496 116.318C295.158 115.954 294.627 115.771 293.904 115.771C293.318 115.771 292.804 115.928 292.361 116.24C291.919 116.553 291.574 116.963 291.326 117.471V125H289.52V110H291.326V115.713ZM300.057 119.619C300.057 118.584 300.258 117.653 300.662 116.826C301.072 115.999 301.639 115.361 302.361 114.912C303.09 114.463 303.921 114.238 304.852 114.238C306.29 114.238 307.452 114.736 308.338 115.732C309.23 116.729 309.676 118.053 309.676 119.707V119.834C309.676 120.863 309.477 121.787 309.08 122.607C308.689 123.421 308.126 124.056 307.391 124.512C306.661 124.967 305.822 125.195 304.871 125.195C303.439 125.195 302.277 124.697 301.385 123.701C300.499 122.705 300.057 121.387 300.057 119.746V119.619ZM301.873 119.834C301.873 121.006 302.143 121.947 302.684 122.656C303.23 123.366 303.96 123.721 304.871 123.721C305.789 123.721 306.518 123.363 307.059 122.646C307.599 121.924 307.869 120.915 307.869 119.619C307.869 118.46 307.592 117.523 307.039 116.807C306.492 116.084 305.763 115.723 304.852 115.723C303.96 115.723 303.24 116.077 302.693 116.787C302.146 117.497 301.873 118.512 301.873 119.834ZM313.641 114.434L313.689 115.605C314.464 114.694 315.509 114.238 316.824 114.238C318.302 114.238 319.308 114.805 319.842 115.938C320.193 115.43 320.649 115.02 321.209 114.707C321.775 114.395 322.443 114.238 323.211 114.238C325.529 114.238 326.707 115.465 326.746 117.92V125H324.939V118.027C324.939 117.272 324.767 116.709 324.422 116.338C324.077 115.96 323.497 115.771 322.684 115.771C322.013 115.771 321.456 115.973 321.014 116.377C320.571 116.774 320.314 117.311 320.242 117.988V125H318.426V118.076C318.426 116.54 317.674 115.771 316.17 115.771C314.985 115.771 314.174 116.276 313.738 117.285V125H311.932V114.434H313.641ZM333.865 125.195C332.433 125.195 331.268 124.727 330.369 123.789C329.471 122.845 329.021 121.585 329.021 120.01V119.678C329.021 118.63 329.22 117.695 329.617 116.875C330.021 116.048 330.581 115.404 331.297 114.941C332.02 114.473 332.801 114.238 333.641 114.238C335.014 114.238 336.082 114.691 336.844 115.596C337.605 116.501 337.986 117.796 337.986 119.482V120.234H330.828C330.854 121.276 331.157 122.119 331.736 122.764C332.322 123.402 333.064 123.721 333.963 123.721C334.601 123.721 335.141 123.59 335.584 123.33C336.027 123.07 336.414 122.725 336.746 122.295L337.85 123.154C336.964 124.515 335.636 125.195 333.865 125.195ZM333.641 115.723C332.911 115.723 332.299 115.99 331.805 116.523C331.31 117.051 331.004 117.793 330.887 118.75H336.18V118.613C336.128 117.695 335.88 116.986 335.438 116.484C334.995 115.977 334.396 115.723 333.641 115.723Z" fill="white"/>
<g clip-path="url(#clip0_2_821)">
<path fill-rule="evenodd" clip-rule="evenodd" d="M341.612 54.2126L337.787 50.3875C336.735 49.3355 335.014 49.3357 333.962 50.3875C332.91 51.4395 332.91 53.1607 333.962 54.2125L337.787 58.0376C338.839 59.0895 340.561 59.0895 341.612 58.0376C342.664 56.9858 342.664 55.2646 341.612 54.2126Z" fill="#878EAB"/>
<path fill-rule="evenodd" clip-rule="evenodd" d="M337.782 50.3833L342.881 45.2839L346.706 49.1083L341.606 54.2078L337.782 50.3833Z" fill="#CD2594"/>
<path fill-rule="evenodd" clip-rule="evenodd" d="M342.882 45.2839L346.281 41.8843L350.106 45.7088L346.706 49.1084L342.882 45.2839Z" fill="#B5BACC"/>
<path fill-rule="evenodd" clip-rule="evenodd" d="M346.288 41.8872L350.113 45.7122L353.682 42.1434L357.082 38.7433L365.582 30.2429L368.982 26.8426L365.157 23.0176L346.288 41.8872Z" fill="#CD2594"/>
<path fill-rule="evenodd" clip-rule="evenodd" d="M353.675 42.1416L357.074 38.742L362.174 43.8415L358.774 47.2411L353.675 42.1416Z" fill="#878EAB"/>
<path fill-rule="evenodd" clip-rule="evenodd" d="M365.576 30.2436L368.975 26.844L374.075 31.9434L370.675 35.343L365.576 30.2436Z" fill="#878EAB"/>
<path fill-rule="evenodd" clip-rule="evenodd" d="M365.151 23.019L368.551 19.6194L372.375 23.4439L368.976 26.8435L365.151 23.019Z" fill="#B5BACC"/>
<path fill-rule="evenodd" clip-rule="evenodd" d="M368.552 19.6197L374.501 13.6703L378.326 17.4948L372.376 23.4442L368.552 19.6197Z" fill="#CD2594"/>
<path fill-rule="evenodd" clip-rule="evenodd" d="M374.508 13.6672L378.333 17.4923L379.14 18.2998L382.243 13.9222L378.078 9.75721L373.7 12.8597L374.508 13.6672Z" fill="#878EAB"/>
<path fill-rule="evenodd" clip-rule="evenodd" d="M378.078 9.75721L382.243 13.9222L389.255 9.28965L382.71 2.74457L378.078 9.75721Z" fill="#B5BACC"/>
<path fill-rule="evenodd" clip-rule="evenodd" d="M382.71 2.74457L389.255 9.28965L390.828 1.17207L382.71 2.74457Z" fill="#92A5B3"/>
<path d="M391.657 0.343682C391.382 0.0682997 390.988 -0.0527515 390.605 0.0218948L382.488 1.59439C382.179 1.65427 381.907 1.83602 381.733 2.09898L377.222 8.92835L373.023 11.9039C372.742 12.1036 372.562 12.4173 372.533 12.7612C372.505 13.0951 372.622 13.424 372.852 13.6663L359.048 27.4706C358.59 27.9282 358.59 28.6702 359.048 29.128C359.277 29.3567 359.577 29.4712 359.877 29.4712C360.176 29.4712 360.476 29.3567 360.705 29.128L365.158 24.6753L367.326 26.8431L350.113 44.0551L347.946 41.8873L353.248 36.5852C353.705 36.1276 353.705 35.3856 353.248 34.9279C352.79 34.4704 352.048 34.4704 351.59 34.9279L337.659 48.8587C337.116 48.5769 336.507 48.4269 335.875 48.4269C334.838 48.4269 333.864 48.8289 333.134 49.559C331.623 51.0704 331.623 53.5299 333.134 55.0413L336.959 58.8665C337.715 59.6222 338.708 60.0001 339.7 60.0001C340.693 60.0001 341.686 59.6222 342.442 58.8665C343.664 57.6438 343.897 55.8008 343.142 54.341L353.682 43.8007L357.954 48.0723C358.183 48.301 358.483 48.4155 358.782 48.4155C359.082 48.4155 359.382 48.301 359.611 48.0723L363.011 44.6721C363.469 44.2145 363.469 43.4725 363.011 43.0147L358.74 38.7431L365.583 31.9001L369.854 36.1717C370.074 36.3914 370.372 36.5149 370.683 36.5149C370.994 36.5149 371.292 36.3914 371.511 36.1717L374.912 32.7714C375.369 32.3138 375.369 31.5718 374.912 31.1141L370.64 26.8425L378.334 19.1483C378.553 19.3557 378.841 19.4715 379.141 19.4715C379.173 19.4715 379.206 19.4701 379.239 19.4674C379.583 19.4382 379.897 19.2589 380.097 18.9772L383.072 14.7788L389.902 10.2672C390.165 10.0936 390.346 9.82141 390.406 9.51228L391.979 1.39482C392.053 1.01304 391.932 0.618948 391.657 0.343682ZM348.456 45.7124L346.713 47.4554L344.545 45.2876L346.288 43.5448L348.456 45.7124ZM339.445 50.3878L342.888 46.9449L345.056 49.1126L341.613 52.5555L339.445 50.3878ZM340.784 57.2092C340.497 57.4967 340.112 57.655 339.7 57.655C339.289 57.655 338.904 57.4967 338.617 57.2092L334.792 53.3841C334.194 52.7864 334.194 51.8141 334.792 51.2163C335.079 50.9289 335.464 50.7706 335.875 50.7706C336.287 50.7706 336.672 50.9289 336.959 51.2163L340.784 55.0415C341.072 55.3288 341.23 55.7137 341.23 56.1253C341.23 56.537 341.072 56.9219 340.784 57.2092ZM360.525 43.8437L358.782 45.5866L355.339 42.1436L357.082 40.4007L360.525 43.8437ZM388.525 6.90165L385.099 3.47578L389.348 2.65268L388.525 6.90165ZM382.897 4.58856L387.412 9.10343L382.396 12.4175L379.583 9.60521L382.897 4.58856ZM372.383 21.7854L370.215 19.6176L374.508 15.3246L376.676 17.4924L372.383 21.7854ZM372.426 31.9432L370.683 33.6861L367.24 30.2431L368.983 28.5002L372.426 31.9432ZM366.815 23.0179L368.558 21.275L370.726 23.4427L368.983 25.1855L366.815 23.0179ZM378.987 16.4897L375.511 13.0132L377.949 11.2854L380.715 14.0518L378.987 16.4897Z" fill="black"/>
<path d="M356.147 33.2C356.447 33.2 356.747 33.0855 356.976 32.8567L356.976 32.8561C357.434 32.3985 357.434 31.6568 356.976 31.1991C356.518 30.7414 355.776 30.742 355.318 31.1993C354.861 31.657 354.861 32.399 355.318 32.8567C355.547 33.0855 355.847 33.2 356.147 33.2Z" fill="black"/>
</g>
<g clip-path="url(#clip1_2_821)">
<path d="M172.944 45.3047L167.695 40.0559C174.4 30.8329 181.817 22.1501 189.88 14.0875L200.218 3.74979C202.712 1.25543 206.756 1.25543 209.25 3.74979C211.745 6.24368 211.745 10.288 209.25 12.7824L198.913 23.1201C190.85 31.1826 182.167 38.6003 172.944 45.3047Z" fill="#D97C41"/>
<path d="M193.249 17.4566L203.587 7.11893C205.486 5.22012 208.282 4.76831 210.609 5.76028C210.298 5.03015 209.846 4.34534 209.25 3.74979C206.756 1.25543 202.712 1.25543 200.218 3.74979L189.88 14.0875C181.817 22.1501 174.4 30.8329 167.695 40.0559L171.064 43.4251C177.769 34.2021 185.186 25.5192 193.249 17.4566Z" fill="#C76D33"/>
<path d="M167.695 40.0555L172.944 45.3042L160.697 57.5508L155.449 52.302L167.695 40.0555Z" fill="#E3E3E3"/>
<path d="M155.448 52.302L167.695 40.0555L171.064 43.4246L158.817 55.6712L155.448 52.302Z" fill="#D1D1D1"/>
<path d="M162.59 56.1701L156.83 50.4106C155.926 49.5069 154.461 49.5069 153.557 50.4106C152.653 51.3146 152.653 52.7799 153.557 53.6836L159.317 59.4431C160.22 60.3472 161.685 60.3472 162.59 59.4431C163.493 58.5395 163.493 57.0738 162.59 56.1701Z" fill="#D97C41"/>
<path d="M156.926 53.7797C157.83 52.8761 159.295 52.8761 160.199 53.7797L156.83 50.4106C155.926 49.5069 154.461 49.5069 153.557 50.4106C152.653 51.3146 152.653 52.7799 153.557 53.6836L156.926 57.0527C156.022 56.1491 156.022 54.6838 156.926 53.7797Z" fill="#C76D33"/>
<path d="M165.042 42.7082L167.695 40.0555L172.943 45.3042L170.291 47.9569L165.042 42.7082Z" fill="#F4F4F4"/>
<path d="M165.042 42.7082L167.695 40.0555L171.064 43.4246L168.412 46.0774L165.042 42.7082Z" fill="#E3E3E3"/>
<path d="M159.738 48.0132L162.39 45.3605L167.639 50.6092L164.987 53.262L159.738 48.0132Z" fill="#F4F4F4"/>
<path d="M159.738 48.0132L162.39 45.3605L165.759 48.7296L163.106 51.3824L159.738 48.0132Z" fill="#E3E3E3"/>
<path d="M209.872 3.12814C208.499 1.75577 206.675 1 204.734 1C202.793 1 200.969 1.75577 199.596 3.12814L189.259 13.4658C181.206 21.5188 173.726 30.2712 167.027 39.4814L157.056 49.4529C156.516 49.0643 155.871 48.8537 155.193 48.8537C154.341 48.8537 153.539 49.186 152.935 49.7894C152.332 50.3922 152 51.1942 152 52.0471C152 52.9003 152.332 53.7019 152.935 54.3052L153.237 54.6069C153.58 54.9497 154.136 54.9497 154.48 54.6069C154.823 54.2635 154.823 53.7069 154.48 53.364L154.178 53.0624C153.619 52.5025 153.619 51.592 154.178 51.0322C154.449 50.7612 154.81 50.6115 155.193 50.6115C155.577 50.6115 155.937 50.7612 156.208 51.0322L161.968 56.7918C162.239 57.0628 162.388 57.423 162.388 57.8066C162.388 58.1902 162.239 58.5505 161.968 58.8215C161.408 59.3813 160.497 59.3813 159.938 58.8215L156.745 55.6295C156.402 55.2862 155.846 55.2862 155.502 55.6295C155.159 55.9728 155.159 56.5295 155.502 56.8723L158.695 60.0648C159.298 60.6677 160.1 61 160.952 61C161.806 61 162.608 60.6677 163.211 60.0648C163.814 59.4615 164.146 58.6595 164.146 57.8066C164.146 57.1292 163.936 56.4837 163.547 55.9445L168.26 51.2318C168.26 51.2313 168.26 51.2313 168.261 51.2313C168.261 51.2309 168.261 51.2309 168.261 51.2304L173.519 45.973C182.729 39.2736 191.481 31.7942 199.534 23.7412L200.218 23.0578C200.561 22.7145 200.561 22.1578 200.218 21.8145C199.874 21.4716 199.318 21.4716 198.975 21.8145L198.291 22.4984C190.463 30.3266 181.969 37.6083 173.034 44.1516L168.849 39.9662C175.392 31.0311 182.673 22.5369 190.502 14.7091L200.839 4.37143C201.88 3.33093 203.263 2.75781 204.734 2.75781C206.206 2.75781 207.589 3.33093 208.629 4.37097C209.669 5.41147 210.242 6.79483 210.242 8.26608C210.242 9.73688 209.669 11.1202 208.629 12.1607L201.295 19.4946C200.952 19.8374 200.952 20.3941 201.295 20.7374C201.638 21.0807 202.195 21.0807 202.538 20.7374L209.872 13.4036C211.244 12.0312 212 10.2065 212 8.26608C212 6.32516 211.244 4.50052 209.872 3.12814ZM167.639 49.3669L163.633 45.361L165.043 43.9515L169.048 47.9574L167.639 49.3669ZM164.986 52.0191L160.981 48.0137L162.39 46.6038L166.396 50.6097L164.986 52.0191ZM158.328 50.666L159.738 49.2565L163.743 53.2624L162.334 54.6719L158.328 50.666ZM171.701 45.3047L170.292 46.7141L166.286 42.7082L167.695 41.2988L171.701 45.3047Z" fill="black"/>
</g>
<g clip-path="url(#clip2_2_821)">
<path d="M261.598 37.9463C258.873 39.5194 257.939 43.0035 259.512 45.7282L262.757 51.3482C263.476 52.5929 263.049 54.1846 261.805 54.9032L253.878 59.4799C252.314 60.3826 250.329 59.4577 250.014 57.6799L247.906 45.7799C247.105 41.2544 248.95 36.6676 252.662 33.9573L252.993 33.7153L261.598 37.9463Z" fill="#CD2594"/>
<path d="M263.319 19.6654L293.618 2.17186L297.111 8.22188L266.812 25.7154L263.319 19.6654Z" fill="#E2E9EE"/>
<path d="M270.805 32.6304L260.415 38.6288C258.516 39.7255 256.087 39.0748 254.99 37.1752L251.477 31.0892C250.38 29.1897 251.031 26.7608 252.93 25.6641L263.32 19.6656L270.805 32.6304Z" fill="#A7BDCD"/>
<path d="M266.812 25.7153L271.566 22.9707L274.311 27.7243L269.557 30.4689L266.812 25.7153Z" fill="#C5D3DE"/>
<path d="M271.566 22.9709L284.962 15.2362L287.707 19.9899L274.31 27.7245L271.566 22.9709Z" fill="#E2E9EE"/>
<path d="M298.128 7.63636L294.635 1.5862C294.311 1.02567 293.594 0.833589 293.034 1.15727L291.024 2.31783L290.702 1.76058C290.379 1.20017 289.662 1.00797 289.101 1.33166C288.541 1.65522 288.349 2.37197 288.672 2.9325L288.994 3.48975L282.146 7.44358C281.585 7.76714 281.393 8.48389 281.717 9.04442C282.041 9.60495 282.757 9.79715 283.318 9.47334L293.191 3.773L295.512 7.79339L267.242 24.115L264.921 20.0946L274.184 14.7468C274.744 14.4232 274.936 13.7064 274.613 13.1459C274.289 12.5854 273.572 12.3934 273.012 12.717L252.345 24.6493C251.155 25.3361 250.304 26.4453 249.948 27.7723C249.593 29.0993 249.775 30.4853 250.462 31.6752L250.52 31.7756C249.436 31.3773 248.497 30.6112 247.902 29.5816C247.579 29.0211 246.862 28.829 246.301 29.1527C245.741 29.4763 245.549 30.193 245.873 30.7536C246.892 32.5198 248.603 33.7586 250.536 34.224C249.227 35.5009 248.193 37.0392 247.505 38.7506C246.581 41.0464 246.321 43.5478 246.753 45.9843L248.86 57.8842C249.074 59.0952 249.868 60.1281 250.983 60.6474C251.489 60.8831 252.033 61 252.576 61C253.23 61 253.882 60.8306 254.464 60.4947L262.391 55.918C263.264 55.4139 263.889 54.6 264.15 53.6262C264.41 52.6523 264.277 51.6352 263.772 50.7621L260.528 45.1422C260.092 44.3869 259.9 43.5569 259.925 42.7434L260.28 43.3576C260.913 44.4538 261.935 45.2379 263.158 45.5656C263.566 45.675 263.98 45.7292 264.392 45.7292C265.213 45.7292 266.023 45.5138 266.754 45.0923L270.209 43.0975C271.305 42.4646 272.089 41.4426 272.417 40.22C272.744 38.9972 272.576 37.7202 271.943 36.6239L270.515 34.151L271.391 33.6454C271.66 33.49 271.857 33.234 271.937 32.9338C272.018 32.6336 271.976 32.3136 271.82 32.0445L271.159 30.8986L288.294 21.0054C288.855 20.6818 289.047 19.9651 288.723 19.4046L286.565 15.6658L297.699 9.23744C297.968 9.08204 298.165 8.82609 298.245 8.52585C298.326 8.22537 298.283 7.90555 298.128 7.63636ZM252.212 28.3789C252.406 27.6566 252.869 27.053 253.517 26.679L262.891 21.2665L264.215 23.5583L256.73 27.8793C256.17 28.2029 255.978 28.9196 256.301 29.4801C256.519 29.8561 256.912 30.0662 257.317 30.0662C257.516 30.0662 257.718 30.0156 257.902 29.9091L265.386 25.5881L266.71 27.8798L259.225 32.2008C258.665 32.5243 258.473 33.2411 258.797 33.8016C259.014 34.1776 259.407 34.3877 259.812 34.3877C260.011 34.3877 260.213 34.3371 260.397 34.2305L267.881 29.9095L269.205 32.2013L259.83 37.6139C259.182 37.9878 258.428 38.0872 257.706 37.8935C256.983 37.7 256.38 37.2367 256.006 36.5891L252.492 30.5031C252.118 29.8556 252.019 29.1011 252.212 28.3789ZM261.742 51.934C261.934 52.265 261.984 52.6504 261.885 53.0196C261.786 53.3886 261.55 53.6971 261.219 53.8882L253.292 58.4649C252.882 58.7013 252.401 58.7225 251.972 58.5227C251.544 58.3229 251.25 57.9413 251.168 57.4755L249.061 45.5756C248.395 41.8178 249.795 37.9458 252.65 35.4656L253.976 37.7611C254.863 39.2977 256.429 40.2026 258.078 40.3183C257.32 42.2093 257.403 44.4169 258.498 46.3141L261.742 51.934ZM269.913 37.7957C270.574 38.9395 270.181 40.4073 269.037 41.0676L265.582 43.0624C265.028 43.3823 264.382 43.4671 263.764 43.3017C263.146 43.1361 262.63 42.7397 262.31 42.1858L261.412 40.6306L262.939 41.04C263.041 41.0672 263.143 41.0802 263.244 41.0802C263.761 41.0802 264.235 40.7348 264.375 40.2113C264.542 39.5861 264.171 38.9435 263.546 38.7759L262.835 38.5854L268.486 35.3229L269.913 37.7957ZM269.987 28.8688L268.414 26.1449L271.138 24.5723L272.711 27.2962L269.987 28.8688ZM274.74 26.1242L273.168 23.4003L284.535 16.8376L286.108 19.5615L274.74 26.1242Z" fill="black"/>
<path d="M255.544 50.1436C255.236 50.1436 254.933 50.2689 254.715 50.4869C254.497 50.7049 254.372 51.0072 254.372 51.3154C254.372 51.6236 254.497 51.926 254.715 52.1439C254.933 52.3619 255.236 52.4873 255.544 52.4873C255.852 52.4873 256.154 52.3619 256.372 52.1439C256.59 51.926 256.716 51.6236 256.716 51.3154C256.716 51.0072 256.59 50.7049 256.372 50.4869C256.155 50.2688 255.852 50.1436 255.544 50.1436Z" fill="black"/>
<path d="M278.166 12.2669C278.474 12.2669 278.775 12.1415 278.994 11.9235C279.212 11.7055 279.338 11.4032 279.338 11.095C279.338 10.7868 279.212 10.4844 278.994 10.2665C278.775 10.0485 278.474 9.92311 278.166 9.92311C277.856 9.92311 277.555 10.0485 277.336 10.2665C277.118 10.4844 276.993 10.7868 276.993 11.095C276.993 11.4032 277.118 11.7055 277.336 11.9235C277.555 12.1416 277.856 12.2669 278.166 12.2669Z" fill="black"/>
</g>
<defs>
<clipPath id="clip0_2_821">
<rect width="60" height="60" fill="white" transform="translate(332)"/>
</clipPath>
<clipPath id="clip1_2_821">
<rect width="60" height="60" fill="white" transform="translate(152 1)"/>
</clipPath>
<clipPath id="clip2_2_821">
<rect width="60" height="60" fill="white" transform="translate(242 1)"/>
</clipPath>
</defs>
</svg>
