<svg width="202" height="24" viewBox="0 0 202 24" fill="none" xmlns="http://www.w3.org/2000/svg">
<path d="M17.2695 23H14.4424L3.70508 6.56445V23H0.87793V1.67188H3.70508L14.4717 18.1807V1.67188H17.2695V23ZM21.1221 14.9287C21.1221 13.376 21.4248 11.9795 22.0303 10.7393C22.6455 9.49902 23.4951 8.54199 24.5791 7.86816C25.6729 7.19434 26.918 6.85742 28.3145 6.85742C30.4727 6.85742 32.2158 7.60449 33.5439 9.09863C34.8818 10.5928 35.5508 12.5801 35.5508 15.0605V15.251C35.5508 16.7939 35.2529 18.1807 34.6572 19.4111C34.0713 20.6318 33.2266 21.584 32.123 22.2676C31.0293 22.9512 29.7695 23.293 28.3438 23.293C26.1953 23.293 24.4521 22.5459 23.1143 21.0518C21.7861 19.5576 21.1221 17.5801 21.1221 15.1191V14.9287ZM23.8467 15.251C23.8467 17.0088 24.252 18.4199 25.0625 19.4844C25.8828 20.5488 26.9766 21.0811 28.3438 21.0811C29.7207 21.0811 30.8145 20.5439 31.625 19.4697C32.4355 18.3857 32.8408 16.8721 32.8408 14.9287C32.8408 13.1904 32.4258 11.7842 31.5957 10.71C30.7754 9.62598 29.6816 9.08398 28.3145 9.08398C26.9766 9.08398 25.8975 9.61621 25.0771 10.6807C24.2568 11.7451 23.8467 13.2686 23.8467 15.251ZM41.498 7.15039L41.5713 8.9082C42.7334 7.54102 44.3008 6.85742 46.2734 6.85742C48.4902 6.85742 49.999 7.70703 50.7998 9.40625C51.3271 8.64453 52.0107 8.0293 52.8506 7.56055C53.7002 7.0918 54.7012 6.85742 55.8535 6.85742C59.3301 6.85742 61.0977 8.69824 61.1562 12.3799V23H58.4463V12.541C58.4463 11.4082 58.1875 10.5635 57.6699 10.0068C57.1523 9.44043 56.2832 9.15723 55.0625 9.15723C54.0566 9.15723 53.2217 9.45996 52.5576 10.0654C51.8936 10.6611 51.5078 11.4668 51.4004 12.4824V23H48.6758V12.6143C48.6758 10.3096 47.5479 9.15723 45.292 9.15723C43.5146 9.15723 42.2988 9.91406 41.6445 11.4277V23H38.9346V7.15039H41.498ZM78.6758 15.251C78.6758 17.6729 78.1191 19.6211 77.0059 21.0957C75.8926 22.5605 74.3984 23.293 72.5234 23.293C70.5215 23.293 68.9736 22.585 67.8799 21.1689L67.748 23H65.2578V0.5H67.9678V8.89355C69.0615 7.53613 70.5703 6.85742 72.4941 6.85742C74.418 6.85742 75.9268 7.58496 77.0205 9.04004C78.124 10.4951 78.6758 12.4873 78.6758 15.0166V15.251ZM75.9658 14.9434C75.9658 13.0977 75.6094 11.6719 74.8965 10.666C74.1836 9.66016 73.1582 9.15723 71.8203 9.15723C70.0332 9.15723 68.749 9.9873 67.9678 11.6475V18.5029C68.7979 20.1631 70.0918 20.9932 71.8496 20.9932C73.1484 20.9932 74.1592 20.4902 74.8818 19.4844C75.6045 18.4785 75.9658 16.9648 75.9658 14.9434ZM89.7646 9.58203C89.3545 9.51367 88.9102 9.47949 88.4316 9.47949C86.6543 9.47949 85.4482 10.2363 84.8135 11.75V23H82.1035V7.15039H84.7402L84.7842 8.98145C85.6729 7.56543 86.9326 6.85742 88.5635 6.85742C89.0908 6.85742 89.4912 6.92578 89.7646 7.0625V9.58203ZM98.5537 23.293C96.4053 23.293 94.6572 22.5898 93.3096 21.1836C91.9619 19.7676 91.2881 17.8779 91.2881 15.5146V15.0166C91.2881 13.4443 91.5859 12.043 92.1816 10.8125C92.7871 9.57227 93.627 8.60547 94.7012 7.91211C95.7852 7.20898 96.957 6.85742 98.2168 6.85742C100.277 6.85742 101.879 7.53613 103.021 8.89355C104.164 10.251 104.735 12.1943 104.735 14.7236V15.8516H93.998C94.0371 17.4141 94.4912 18.6787 95.3604 19.6455C96.2393 20.6025 97.3525 21.0811 98.7002 21.0811C99.6572 21.0811 100.468 20.8857 101.132 20.4951C101.796 20.1045 102.377 19.5869 102.875 18.9424L104.53 20.2314C103.202 22.2725 101.21 23.293 98.5537 23.293ZM98.2168 9.08398C97.123 9.08398 96.2051 9.48438 95.4629 10.2852C94.7207 11.0762 94.2617 12.1895 94.0859 13.625H102.025V13.4199C101.947 12.043 101.576 10.9785 100.912 10.2266C100.248 9.46484 99.3496 9.08398 98.2168 9.08398ZM129.901 3.98633H123.046V23H120.248V3.98633H113.407V1.67188H129.901V3.98633ZM135.585 23H132.875V7.15039H135.585V23ZM132.655 2.94629C132.655 2.50684 132.787 2.13574 133.051 1.83301C133.324 1.53027 133.725 1.37891 134.252 1.37891C134.779 1.37891 135.18 1.53027 135.453 1.83301C135.727 2.13574 135.863 2.50684 135.863 2.94629C135.863 3.38574 135.727 3.75195 135.453 4.04492C135.18 4.33789 134.779 4.48438 134.252 4.48438C133.725 4.48438 133.324 4.33789 133.051 4.04492C132.787 3.75195 132.655 3.38574 132.655 2.94629ZM146.513 23.293C144.364 23.293 142.616 22.5898 141.269 21.1836C139.921 19.7676 139.247 17.8779 139.247 15.5146V15.0166C139.247 13.4443 139.545 12.043 140.141 10.8125C140.746 9.57227 141.586 8.60547 142.66 7.91211C143.744 7.20898 144.916 6.85742 146.176 6.85742C148.236 6.85742 149.838 7.53613 150.98 8.89355C152.123 10.251 152.694 12.1943 152.694 14.7236V15.8516H141.957C141.996 17.4141 142.45 18.6787 143.319 19.6455C144.198 20.6025 145.312 21.0811 146.659 21.0811C147.616 21.0811 148.427 20.8857 149.091 20.4951C149.755 20.1045 150.336 19.5869 150.834 18.9424L152.489 20.2314C151.161 22.2725 149.169 23.293 146.513 23.293ZM146.176 9.08398C145.082 9.08398 144.164 9.48438 143.422 10.2852C142.68 11.0762 142.221 12.1895 142.045 13.625H149.984V13.4199C149.906 12.043 149.535 10.9785 148.871 10.2266C148.207 9.46484 147.309 9.08398 146.176 9.08398ZM158.407 7.15039L158.495 9.14258C159.706 7.61914 161.288 6.85742 163.241 6.85742C166.591 6.85742 168.28 8.74707 168.31 12.5264V23H165.6V12.5117C165.59 11.3691 165.326 10.5244 164.809 9.97754C164.301 9.43066 163.505 9.15723 162.421 9.15723C161.542 9.15723 160.771 9.3916 160.106 9.86035C159.442 10.3291 158.925 10.9443 158.554 11.7061V23H155.844V7.15039H158.407ZM171.737 14.9434C171.737 12.5117 172.313 10.5586 173.466 9.08398C174.618 7.59961 176.127 6.85742 177.992 6.85742C179.848 6.85742 181.317 7.49219 182.401 8.76172V0.5H185.111V23H182.621L182.489 21.3008C181.405 22.6289 179.896 23.293 177.963 23.293C176.127 23.293 174.628 22.541 173.466 21.0371C172.313 19.5332 171.737 17.5703 171.737 15.1484V14.9434ZM174.447 15.251C174.447 17.0479 174.818 18.4541 175.561 19.4697C176.303 20.4854 177.328 20.9932 178.637 20.9932C180.355 20.9932 181.61 20.2217 182.401 18.6787V11.3984C181.591 9.9043 180.346 9.15723 178.666 9.15723C177.338 9.15723 176.303 9.66992 175.561 10.6953C174.818 11.7207 174.447 13.2393 174.447 15.251ZM199.115 23C198.959 22.6875 198.832 22.1309 198.734 21.3301C197.475 22.6387 195.971 23.293 194.223 23.293C192.66 23.293 191.376 22.8535 190.37 21.9746C189.374 21.0859 188.876 19.9629 188.876 18.6055C188.876 16.9551 189.501 15.6758 190.751 14.7676C192.011 13.8496 193.778 13.3906 196.054 13.3906H198.69V12.1455C198.69 11.1982 198.407 10.4463 197.841 9.88965C197.274 9.32324 196.439 9.04004 195.336 9.04004C194.369 9.04004 193.559 9.28418 192.904 9.77246C192.25 10.2607 191.923 10.8516 191.923 11.5449H189.198C189.198 10.7539 189.477 9.99219 190.033 9.25977C190.6 8.51758 191.361 7.93164 192.318 7.50195C193.285 7.07227 194.345 6.85742 195.497 6.85742C197.323 6.85742 198.754 7.31641 199.789 8.23438C200.824 9.14258 201.361 10.3975 201.4 11.999V19.2939C201.4 20.749 201.586 21.9062 201.957 22.7656V23H199.115ZM194.618 20.9346C195.468 20.9346 196.273 20.7148 197.035 20.2754C197.797 19.8359 198.349 19.2646 198.69 18.5615V15.3096H196.566C193.246 15.3096 191.586 16.2812 191.586 18.2246C191.586 19.0742 191.869 19.7383 192.436 20.2168C193.002 20.6953 193.729 20.9346 194.618 20.9346Z" fill="white"/>
</svg>
